<?xml version="1.0" standalone="no"?>
<!DOCTYPE svg PUBLIC "-//W3C//DTD SVG 20010904//EN"
 "http://www.w3.org/TR/2001/REC-SVG-20010904/DTD/svg10.dtd">
<svg version="1.0" xmlns="http://www.w3.org/2000/svg"
 width="108.000000pt" height="108.000000pt" viewBox="0 0 108.000000 108.000000"
 preserveAspectRatio="xMidYMid meet">

<g transform="translate(0.000000,108.000000) scale(0.100000,-0.100000)"
fill="#000000" stroke="none">
<path d="M273 714 c-84 -42 -99 -212 -24 -278 30 -27 109 -33 156 -10 86 41
103 210 26 278 -29 27 -116 32 -158 10z m117 -52 c24 -19 38 -91 26 -137 -15
-58 -76 -83 -123 -50 -41 29 -42 146 -2 186 24 24 70 24 99 1z"/>
<path d="M679 701 c-53 -54 -31 -115 59 -163 23 -12 32 -24 32 -42 0 -34 -40
-45 -86 -23 l-34 17 0 -29 c0 -22 7 -31 30 -41 62 -26 142 10 153 67 9 46 -11
78 -66 109 -40 23 -52 35 -52 54 0 22 4 25 35 24 19 0 43 -4 53 -8 14 -7 17
-3 17 18 0 52 -94 64 -141 17z"/>
<path d="M540 570 l0 -150 25 0 25 0 0 150 0 150 -25 0 -25 0 0 -150z"/>
</g>
</svg>
